<?xml version="1.0" encoding="UTF-8" standalone="no"?><!DOCTYPE svg PUBLIC "-//W3C//DTD SVG 1.1//EN" "http://www.w3.org/Graphics/SVG/1.1/DTD/svg11.dtd"><svg width="100%" height="100%" viewBox="0 0 478 222" version="1.1" xmlns="http://www.w3.org/2000/svg" xmlns:xlink="http://www.w3.org/1999/xlink" xml:space="preserve" xmlns:serif="http://www.serif.com/" style="fill-rule:evenodd;clip-rule:evenodd;stroke-linejoin:round;stroke-miterlimit:2;"><path d="M100.548,125.616l73.65,0l0,5.888c0,13.391 -1.577,25.242 -4.733,35.555c-3.078,9.543 -8.273,18.47 -15.584,26.782c-16.546,18.624 -37.595,27.936 -63.145,27.936c-24.935,0 -46.292,-9.004 -64.069,-27.012c-17.778,-18.086 -26.667,-39.789 -26.667,-65.108c0,-25.859 9.043,-47.792 27.128,-65.801c18.086,-18.086 40.096,-27.128 66.032,-27.128c13.93,-0 26.936,2.847 39.018,8.542c11.544,5.695 22.896,14.93 34.055,27.706l-19.163,18.355c-14.622,-19.471 -32.438,-29.207 -53.448,-29.207c-18.856,0 -34.671,6.503 -47.446,19.51c-12.775,12.775 -19.163,28.783 -19.163,48.023c-0,19.855 7.119,36.209 21.356,49.061c13.314,11.929 27.744,17.894 43.29,17.894c13.237,-0 25.127,-4.464 35.671,-13.391c10.543,-9.005 16.431,-19.779 17.662,-32.323l-44.444,-0l-0,-25.282Z" style="fill:#fefeff;fill-rule:nonzero;"/><path d="M229.627,174.6l-76.305,0l-19.856,43.29l-28.975,0l88.196,-189.436l85.079,189.436l-29.437,0l-18.702,-43.29Zm-10.966,-25.281l-26.436,-60.606l-27.706,60.606l54.142,0Z" style="fill:#fefeff;fill-rule:nonzero;"/><path d="M299.954,146.496l-0,72.381l-26.898,-0l0,-178.239l30.477,0c14.93,0 26.204,1.039 33.823,3.117c7.696,2.078 14.469,6.003 20.318,11.775c10.235,10.004 15.353,22.626 15.353,37.864c0,16.315 -5.464,29.245 -16.392,38.788c-10.929,9.543 -25.666,14.314 -44.214,14.314l-12.467,0Zm-0,-24.935l10.043,0c24.704,0 37.056,-9.504 37.056,-28.513c0,-18.394 -12.737,-27.59 -38.21,-27.59l-8.889,-0l-0,56.103Z" style="fill:#fefeff;fill-rule:nonzero;"/><rect x="379.423" y="42.86" width="26.181" height="178.11" style="fill:#fefeff;fill-rule:nonzero;"/><rect x="447.291" y="42.86" width="26.181" height="178.11" style="fill:#fefeff;fill-rule:nonzero;"/><path d="M477.972,26.181l-104.084,-0l0,-26.181l104.084,0l-0,26.181Z" style="fill:#fefeff;fill-rule:nonzero;"/><path d="M243.161,145.166l0,72.381l-26.897,0l-0,-178.239l30.476,0c14.93,0 26.205,1.039 33.824,3.117c7.696,2.078 14.468,6.003 20.317,11.775c10.236,10.005 15.354,22.626 15.354,37.864c-0,16.316 -5.464,29.245 -16.393,38.788c-10.928,9.543 -25.666,14.314 -44.213,14.314l-12.468,0Zm0,-24.935l10.044,0c24.704,0 37.056,-9.504 37.056,-28.513c-0,-18.394 -12.737,-27.59 -38.211,-27.59l-8.889,-0l0,56.103Z" style="fill:#101828;fill-rule:nonzero;"/></svg>