<?xml version="1.0" encoding="UTF-8" standalone="no"?>
<!DOCTYPE svg PUBLIC "-//W3C//DTD SVG 1.1//EN" "http://www.w3.org/Graphics/SVG/1.1/DTD/svg11.dtd">
<svg width="100%" height="100%" viewBox="0 0 478 222" version="1.1" xmlns="http://www.w3.org/2000/svg" xmlns:xlink="http://www.w3.org/1999/xlink" xml:space="preserve" xmlns:serif="http://www.serif.com/" style="fill-rule:evenodd;clip-rule:evenodd;stroke-linejoin:round;stroke-miterlimit:2;">
    <g transform="matrix(1,0,0,1,-1099.92,-558.806)">
        <g transform="matrix(4.72841,0,0,4.72841,-369.017,-3663.86)">
            <g transform="matrix(50,0,0,50,350.139,939.236)">
            </g>
            <text x="308.024px" y="939.236px" style="font-family:'Futura-Medium', 'Futura', sans-serif;font-weight:500;font-size:50px;fill:rgb(3,6,55);">G</text>
        </g>
        <g transform="matrix(4.72841,0,0,4.72841,-252.982,-3664.4)">
            <g transform="matrix(50,0,0,50,345.06,939.236)">
            </g>
            <text x="308.024px" y="939.236px" style="font-family:'Futura-Medium', 'Futura', sans-serif;font-weight:500;font-size:50px;fill:rgb(3,6,55);">A</text>
        </g>
        <g transform="matrix(4.72841,0,0,4.72841,-104.85,-3663.41)">
            <g transform="matrix(50,0,0,50,335.026,939.236)">
            </g>
            <text x="308.024px" y="939.236px" style="font-family:'Futura-Medium', 'Futura', sans-serif;font-weight:500;font-size:50px;fill:rgb(240,240,240);">P</text>
        </g>
        <g transform="matrix(4.72841,0,0,4.85431,2.08561,-3779.57)">
            <g transform="matrix(48.6681,0,0,48.6681,336.731,939.236)">
            </g>
            <text x="308.024px" y="939.236px" style="font-family:'Futura-Medium', 'Futura', sans-serif;font-weight:500;font-size:48.668px;fill:rgb(3,6,55);">II</text>
        </g>
        <g transform="matrix(2.89532e-16,4.72841,-2.83674,1.737e-16,4138.18,-918.447)">
            <g transform="matrix(48.6681,0,0,48.6681,322.378,939.236)">
            </g>
            <text x="308.024px" y="939.236px" style="font-family:'Futura-Medium', 'Futura', sans-serif;font-weight:500;font-size:48.668px;fill:rgb(3,6,55);">I</text>
        </g>
        <g transform="matrix(4.72841,0,0,4.72841,-161.642,-3664.74)">
            <g transform="matrix(50,0,0,50,335.026,939.236)">
            </g>
            <text x="308.024px" y="939.236px" style="font-family:'Futura-Medium', 'Futura', sans-serif;font-weight:500;font-size:50px;fill:rgb(3,6,55);">P</text>
        </g>
    </g>
</svg>
